<mxfile host="app.diagrams.net" modified="2024-03-18T07:45:27.692Z" agent="Mozilla/5.0 (Windows NT 10.0; Win64; x64) AppleWebKit/537.36 (KHTML, like Gecko) Chrome/122.0.0.0 Safari/537.36 Edg/122.0.0.0" etag="nwIYid1zFcavmV7hrljD" version="24.0.7" type="github">
  <diagram name="第 1 页" id="StKTlUCO6NkddTVyeMqx">
    <mxGraphModel dx="805" dy="423" grid="1" gridSize="10" guides="1" tooltips="1" connect="1" arrows="1" fold="1" page="1" pageScale="1" pageWidth="850" pageHeight="1100" math="0" shadow="0">
      <root>
        <mxCell id="0" />
        <mxCell id="1" parent="0" />
        <mxCell id="yNMSCvjh66X3Ysb9l6PN-1" value="PyUds" style="rounded=1;whiteSpace=wrap;html=1;labelBackgroundColor=none;fillColor=#BC6C25;strokeColor=#DDA15E;fontColor=#FEFAE0;" vertex="1" parent="1">
          <mxGeometry x="460" y="210" width="120" height="70" as="geometry" />
        </mxCell>
        <mxCell id="yNMSCvjh66X3Ysb9l6PN-2" value="获取测试报告" style="rounded=1;whiteSpace=wrap;html=1;labelBackgroundColor=none;fillColor=#BC6C25;strokeColor=#DDA15E;fontColor=#FEFAE0;" vertex="1" parent="1">
          <mxGeometry x="460" y="330" width="120" height="70" as="geometry" />
        </mxCell>
        <mxCell id="yNMSCvjh66X3Ysb9l6PN-8" value="" style="edgeStyle=orthogonalEdgeStyle;rounded=0;orthogonalLoop=1;jettySize=auto;html=1;entryX=-0.011;entryY=0.565;entryDx=0;entryDy=0;entryPerimeter=0;exitX=1.004;exitY=0.376;exitDx=0;exitDy=0;exitPerimeter=0;labelBackgroundColor=none;strokeColor=#DDA15E;fontColor=default;" edge="1" parent="1" source="yNMSCvjh66X3Ysb9l6PN-5" target="yNMSCvjh66X3Ysb9l6PN-1">
          <mxGeometry relative="1" as="geometry">
            <mxPoint x="410" y="240" as="sourcePoint" />
          </mxGeometry>
        </mxCell>
        <mxCell id="yNMSCvjh66X3Ysb9l6PN-5" value="" style="rounded=1;whiteSpace=wrap;html=1;labelBackgroundColor=none;fillColor=#BC6C25;strokeColor=#DDA15E;fontColor=#FEFAE0;" vertex="1" parent="1">
          <mxGeometry x="120" y="200" width="290" height="130" as="geometry" />
        </mxCell>
        <mxCell id="yNMSCvjh66X3Ysb9l6PN-3" value="提供配置字的Mapping信息" style="rounded=1;whiteSpace=wrap;html=1;labelBackgroundColor=none;fillColor=#BC6C25;strokeColor=#DDA15E;fontColor=#FEFAE0;" vertex="1" parent="1">
          <mxGeometry x="130" y="210" width="110" height="70" as="geometry" />
        </mxCell>
        <mxCell id="yNMSCvjh66X3Ysb9l6PN-4" value="生成配置字" style="rounded=1;whiteSpace=wrap;html=1;labelBackgroundColor=none;fillColor=#BC6C25;strokeColor=#DDA15E;fontColor=#FEFAE0;" vertex="1" parent="1">
          <mxGeometry x="280" y="210" width="120" height="70" as="geometry" />
        </mxCell>
        <mxCell id="yNMSCvjh66X3Ysb9l6PN-6" value="" style="endArrow=classic;html=1;rounded=0;entryX=0;entryY=0.5;entryDx=0;entryDy=0;exitX=1;exitY=0.5;exitDx=0;exitDy=0;labelBackgroundColor=none;strokeColor=#DDA15E;fontColor=default;" edge="1" parent="1" source="yNMSCvjh66X3Ysb9l6PN-3" target="yNMSCvjh66X3Ysb9l6PN-4">
          <mxGeometry width="50" height="50" relative="1" as="geometry">
            <mxPoint x="250" y="250" as="sourcePoint" />
            <mxPoint x="300" y="200" as="targetPoint" />
          </mxGeometry>
        </mxCell>
        <mxCell id="yNMSCvjh66X3Ysb9l6PN-9" value="" style="endArrow=classic;html=1;rounded=0;entryX=0.5;entryY=0;entryDx=0;entryDy=0;exitX=0.5;exitY=1;exitDx=0;exitDy=0;labelBackgroundColor=none;strokeColor=#DDA15E;fontColor=default;" edge="1" parent="1" source="yNMSCvjh66X3Ysb9l6PN-1" target="yNMSCvjh66X3Ysb9l6PN-2">
          <mxGeometry width="50" height="50" relative="1" as="geometry">
            <mxPoint x="580" y="305" as="sourcePoint" />
            <mxPoint x="630" y="255" as="targetPoint" />
          </mxGeometry>
        </mxCell>
        <mxCell id="yNMSCvjh66X3Ysb9l6PN-10" value="配置字生成器" style="text;html=1;align=center;verticalAlign=middle;whiteSpace=wrap;rounded=0;labelBackgroundColor=none;fontColor=#FEFAE0;" vertex="1" parent="1">
          <mxGeometry x="225" y="300" width="80" height="30" as="geometry" />
        </mxCell>
      </root>
    </mxGraphModel>
  </diagram>
</mxfile>
